Coordinates
version=1
nRows=10
nColumns=63
inDegrees=yes

Units are S.I. units (second, meters, Newtons, ...)
If the header above contains a line with 'inDegrees', this indicates whether rotational values are in degrees (yes) or radians (no).

endheader
time	pelvis_tilt	pelvis_list	pelvis_rotation	pelvis_tx	pelvis_ty	pelvis_tz	hip_flexion_r	hip_adduction_r	hip_rotation_r	knee_angle_r	knee_angle_r_beta	ankle_angle_r	subtalar_angle_r	mtp_angle_r	hip_flexion_l	hip_adduction_l	hip_rotation_l	knee_angle_l	knee_angle_l_beta	ankle_angle_l	subtalar_angle_l	mtp_angle_l	L5_S1_Flex_Ext	L5_S1_Lat_Bending	L5_S1_axial_rotation	L4_L5_Flex_Ext	L4_L5_Lat_Bending	L4_L5_axial_rotation	L3_L4_Flex_Ext	L3_L4_Lat_Bending	L3_L4_axial_rotation	L2_L3_Flex_Ext	L2_L3_Lat_Bending	L2_L3_axial_rotation	L1_L2_Flex_Ext	L1_L2_Lat_Bending	L1_L2_axial_rotation	L1_T12_Flex_Ext	L1_T12_Lat_Bending	L1_T12_axial_rotation	Abs_r3	Abs_r2	Abs_r1	Abs_t1	Abs_t2	neck_flexion	neck_bending	neck_rotation	arm_flex_r	arm_add_r	arm_rot_r	elbow_flex_r	pro_sup_r	wrist_flex_r	wrist_dev_r	arm_flex_l	arm_add_l	arm_rot_l	elbow_flex_l	pro_sup_l	wrist_flex_l	wrist_dev_l
     11.75800000	    -43.88040255	     -3.79823452	     -5.40086657	     -0.37144622	      1.13094987	      0.00904837	    114.08627485	     -5.08409476	     -4.95200200	    103.49104075	      1.80625941	     19.77917626	     -1.28371658	      0.00000000	     77.89382790	     -7.55803008	      8.79444457	     45.65925703	      0.79690437	     -5.27034419	    -12.25836648	      0.00000000	     -0.07833591	      1.04990315	      0.94973012	     -0.14547762	      1.39637119	      1.00908826	     -0.12869807	      2.55273452	      1.00908826	     -0.08953011	      2.55273452	      0.83101386	     -0.07274273	      2.14096251	      0.77165572	     -0.04476114	      1.62629998	      0.71229759	     -0.55954558	     11.87671443	      5.28211402	      0.00000000	      0.00000000	     -0.00000000	      0.00000000	      0.00000000	     61.33602539	    -14.02214367	     27.59785753	     44.20287448	     60.04105160	      0.00000000	      5.00000014	     60.81343042	     -7.33498415	     22.88263393	     34.12504005	     60.03488252	      0.00000000	      5.00000014
     11.76700000	    -43.95937329	     -3.71027195	     -5.29597603	     -0.37154970	      1.13135846	      0.00860210	    114.44791397	     -5.10276871	     -4.87195100	    101.95553677	      1.77945981	     20.31391957	     -1.05603525	      0.00000000	     78.06773389	     -7.26542343	      8.77206037	     47.59783349	      0.83073891	     -5.57219676	    -13.14659557	      0.00000000	     -0.07775762	      1.04222309	      0.93266571	     -0.14440368	      1.38615671	      0.99095732	     -0.12774800	      2.53406122	      0.99095732	     -0.08886919	      2.53406122	      0.81608250	     -0.07220573	      2.12530132	      0.75779089	     -0.04443071	      1.61440356	      0.69949928	     -0.55541493	     11.78983602	      5.18720690	      0.00000000	      0.00000000	     -0.00000000	      0.00000000	      0.00000000	     61.25510111	    -14.10900313	     27.55125810	     44.50510358	     60.03201642	      0.00000000	      5.00000014	     60.82827993	     -7.27334475	     22.68970652	     34.12262093	     59.99218268	      0.00000000	      5.00000014
     11.77500000	    -44.01850083	     -3.55486499	     -4.93815534	     -0.37169969	      1.13166039	      0.00791632	    114.64389021	     -5.28931273	     -4.62883629	    100.25097142	      1.74970953	     20.46541589	     -1.02529952	      0.00000000	     78.39113354	     -6.73668888	      8.68478320	     49.78544739	      0.86891998	     -5.45116162	    -13.33764142	      0.00000000	     -0.07737669	      1.02259136	      0.87011703	     -0.14369625	      1.36004651	      0.92449935	     -0.12712217	      2.48632863	      0.92449935	     -0.08843382	      2.48632863	      0.76135240	     -0.07185200	      2.08526830	      0.70697009	     -0.04421304	      1.58399402	      0.65258778	     -0.55269397	     11.56775799	      4.83932991	      0.00000000	      0.00000000	     -0.00000000	      0.00000000	      0.00000000	     61.20101997	    -14.17087027	     27.54479295	     44.70802791	     59.98587569	      0.00000000	      5.00000014	     60.88719020	     -7.27006740	     22.63088378	     34.17385334	     59.93721680	      0.00000000	      5.00000014
     11.78300000	    -44.08132201	     -3.44085226	     -4.62853801	     -0.37184599	      1.13196627	      0.00729793	    114.58102887	     -5.38561413	     -4.43519061	     98.27853943	      1.71528410	     20.61041763	     -0.97204499	      0.00000000	     78.91145179	     -6.22706051	      8.67600141	     52.29341492	      0.91269227	     -5.42719970	    -13.57438277	      0.00000000	     -0.07807488	      1.00806535	      0.82664349	     -0.14499286	      1.34072692	      0.87830871	     -0.12826922	      2.45101010	      0.87830871	     -0.08923178	      2.45101010	      0.72331305	     -0.07250033	      2.05564687	      0.67164783	     -0.04461199	      1.56149323	      0.61998262	     -0.55768107	     11.40343689	      4.59754309	      0.00000000	      0.00000000	     -0.00000000	      0.00000000	      0.00000000	     61.13664632	    -14.31733579	     27.51931121	     44.94554594	     59.91917650	      0.00000000	      5.00000014	     60.94976610	     -7.21540014	     22.58383716	     34.27885083	     59.86458666	      0.00000000	      5.00000014
     11.79200000	    -44.19195603	     -3.53747862	     -4.50403479	     -0.37212928	      1.13236373	      0.00679948	    114.18757554	     -5.36568072	     -4.55729290	     95.92058578	      1.67413004	     20.69159734	     -0.88829355	      0.00000000	     79.66831530	     -5.92373332	      8.84570718	     54.97761947	      0.95954047	     -5.82986623	    -14.24983212	      0.00000000	     -0.07773296	      1.02129458	      0.82646228	     -0.14435788	      1.35832179	      0.87811617	     -0.12770748	      2.48317563	      0.87811617	     -0.08884100	      2.48317563	      0.72315449	     -0.07218283	      2.08262390	      0.67150060	     -0.04441661	      1.58198530	      0.61984671	     -0.55523875	     11.55308851	      4.59653525	      0.00000000	      0.00000000	     -0.00000000	      0.00000000	      0.00000000	     61.12857831	    -14.60765709	     27.52627958	     45.25357327	     59.87456672	      0.00000000	      5.00000014	     60.99696700	     -7.04980102	     22.53319186	     34.41533370	     59.80354807	      0.00000000	      5.00000014
     11.80000000	    -44.24908125	     -3.36451551	     -3.88215971	     -0.37245156	      1.13258766	      0.00593430	    113.72777899	     -5.66425812	     -4.20485643	     93.57176414	      1.63313537	     20.36557432	     -0.84931034	      0.00000000	     80.43055716	     -5.13411265	      8.73822723	     57.63963937	      1.00600149	     -5.62020015	    -14.18383890	      0.00000000	     -0.07968089	      0.99559287	      0.72761480	     -0.14797537	      1.32413851	      0.77309073	     -0.13090773	      2.42068449	      0.77309073	     -0.09106728	      2.42068449	      0.63666295	     -0.07399167	      2.03021297	      0.59118703	     -0.04552966	      1.54217335	      0.54571110	     -0.56915260	     11.26234561	      4.04677525	      0.00000000	      0.00000000	     -0.00000000	      0.00000000	      0.00000000	     61.12313562	    -14.74106804	     27.50721956	     45.44404456	     59.80954341	      0.00000000	      5.00000014	     61.12402492	     -7.03948656	     22.51117638	     34.57801496	     59.73530549	      0.00000000	      5.00000014
     11.80800000	    -44.28726059	     -3.26623543	     -3.38753280	     -0.37265941	      1.13265166	      0.00518163	    113.00504629	     -5.83214700	     -3.95475370	     91.03887170	      1.58892806	     19.93321825	     -0.90726647	      0.00000000	     81.38923856	     -4.44643489	      8.78880146	     60.61175658	      1.05787472	     -5.65295272	    -14.40971916	      0.00000000	     -0.07931094	      0.97993672	      0.65149937	     -0.14728835	      1.30331584	      0.69221808	     -0.13029994	      2.38261815	      0.69221808	     -0.09064447	      2.38261815	      0.57006195	     -0.07364814	      1.99828697	      0.52934324	     -0.04531827	      1.51792198	      0.48862453	     -0.56651011	     11.08524020	      3.62344406	      0.00000000	      0.00000000	     -0.00000000	      0.00000000	      0.00000000	     61.08295939	    -14.90472432	     27.45995941	     45.57907699	     59.81143987	      0.00000000	      5.00000014	     61.18033872	     -7.01099312	     22.56319463	     34.76607968	     59.74509223	      0.00000000	      5.00000014
     11.81700000	    -44.37196730	     -3.41457992	     -3.13187108	     -0.37304625	      1.13271160	      0.00480198	    111.98603562	     -5.79989648	     -4.09196687	     88.19728595	      1.53933303	     19.31136777	     -1.21090433	      0.00000000	     82.61287875	     -4.07443799	      9.05596945	     63.77603211	      1.11310174	     -5.96457858	    -14.43103172	      0.00000000	     -0.07790896	      0.99550641	      0.62537188	     -0.14468472	      1.32402353	      0.66445762	     -0.12799662	      2.42047429	      0.66445762	     -0.08904214	      2.42047429	      0.54720040	     -0.07234626	      2.03003668	      0.50811465	     -0.04451718	      1.54203943	      0.46902891	     -0.55649588	     11.26136764	      3.47813080	      0.00000000	      0.00000000	     -0.00000000	      0.00000000	      0.00000000	     61.12569393	    -15.10673274	     27.36338126	     45.70639861	     59.81479788	      0.00000000	      5.00000014	     61.22864463	     -6.95409452	     22.75534371	     35.11726642	     59.77861325	      0.00000000	      5.00000014
     11.82500000	    -44.46554043	     -3.68693229	     -2.85462838	     -0.37359239	      1.13283725	      0.00430298	    110.74234598	     -5.84837194	     -4.48753021	     85.08346335	      1.48498657	     18.23538014	     -1.95714051	      0.00000000	     83.90025359	     -3.72449528	      9.41125290	     66.86014819	      1.16692972	     -5.93418356	    -14.38970150	      0.00000000	     -0.07889014	      1.02893334	      0.58574465	     -0.14650688	      1.36848134	      0.62235369	     -0.12960861	      2.50174853	      0.62235369	     -0.09016354	      2.50174853	      0.51252657	     -0.07325738	      2.09820087	      0.47591753	     -0.04507782	      1.59381775	      0.43930849	     -0.56350437	     11.63949975	      3.25773603	      0.00000000	      0.00000000	     -0.00000000	      0.00000000	      0.00000000	     61.23481533	    -15.31157305	     27.35461752	     45.87533112	     59.84287716	      0.00000000	      5.00000014	     61.32479970	     -6.95601693	     23.08492669	     35.35553171	     59.84627911	      0.00000000	      5.00000014
     11.83300000	    -44.47864996	     -3.52550404	     -2.19444597	     -0.37402929	      1.13251326	      0.00378552	    109.49047953	     -6.07938124	     -4.19845654	     82.16063365	      1.43397357	     17.34537788	     -2.05378972	      0.00000000	     85.15844443	     -2.89939120	      9.44644819	     69.96317484	      1.22108776	     -5.67107910	    -14.45257003	      0.00000000	     -0.07675649	      0.99838251	      0.45852052	     -0.14254448	      1.32784873	      0.48717805	     -0.12610324	      2.42746723	      0.48717805	     -0.08772499	      2.42746723	      0.40120545	     -0.07127608	      2.03590161	      0.37254792	     -0.04385866	      1.54649450	      0.34389039	     -0.54826393	     11.29390260	      2.55015357	      0.00000000	      0.00000000	     -0.00000000	      0.00000000	      0.00000000	     61.18681386	    -15.26910041	     27.27900911	     45.99814215	     59.84114872	      0.00000000	      5.00000014	     61.45771478	     -7.10120060	     23.19049837	     35.44381407	     59.86864660	      0.00000000	      5.00000014
